<svg width="175" height="47" viewBox="0 0 175 47" fill="none" xmlns="http://www.w3.org/2000/svg">
<path d="M130.094 13.7017L127.229 19.0973L122.999 27.0675H127.229H131.458L130.225 13.7017H130.094Z" fill="#F7F7F7"/>
<path d="M0.491943 0.824219V7.4233H9.83562V8.61566H0.491943V15.0281H9.83562V16.23H0.491943V22.8449H9.83562V24.0372H0.491943V30.7597H9.83562V31.9504H0.491943V38.3898H9.83562V39.5806H0.491943V46.118H174.494V0.824219H0.491943ZM42.9127 16.8625H34.1463C34.4466 15.618 34.249 14.6802 33.6002 14.0161C32.9933 13.3471 31.9259 12.9913 30.4353 12.9913C28.4125 12.9913 26.3897 14.3292 26.0552 15.9311C25.5635 18.2921 28.2087 19.0496 30.401 19.6742C35.4175 21.0563 43.017 21.5893 41.2042 30.2694C39.7867 37.0409 32.5405 40.2543 25.2227 40.2543C17.8567 40.2543 11.8226 38.0656 13.5171 29.3333H22.2835C21.6113 32.3632 23.452 34.0126 26.6091 34.0126C28.6319 34.0126 31.4327 32.9436 31.8823 30.8055C32.7973 26.4378 26.1112 27.3724 19.8748 24.2997C16.9729 22.8765 16.016 19.9336 16.738 16.4609C18.6814 8.8418 25.6942 6.75122 32.3134 6.75122C38.8454 6.75438 45.0537 9.11379 42.9127 16.8625ZM69.7737 26.5311H55.6609L54.2372 33.3452H69.576L68.2706 39.5822H44.1622L50.884 7.42014H75.0018L74.1148 11.6535L73.6932 13.6555H58.3527L56.9632 20.2973H71.0791L69.7737 26.5311ZM91.9386 39.5822L86.3511 14.9475H86.264L81.1121 39.5822H73.2248L74.1117 35.3425L79.9498 7.42014H92.2218L97.8234 31.3859L97.9245 31.2973L102.921 7.41856H110.81L109.065 15.7556L104.078 39.5885L91.9386 39.5822ZM133.094 39.5822L132.307 33.3088H119.464L116.089 39.5885H107.323L109.065 36.6724L126.542 7.42646H137.241L142.998 39.5885L133.094 39.5822ZM155.099 39.5822H146.333L153.061 7.42014H161.826L155.099 39.5822ZM174.493 39.5743H165.148V38.3835H174.493V39.5743ZM174.493 31.9441H165.148V30.7533H174.493V31.9441ZM174.493 24.0372H165.148V22.8449H174.493V24.0372ZM174.493 16.23H165.148V15.036H174.493V16.23ZM174.493 8.62198H165.148V7.42963H174.493V8.62198Z" fill="#F7F7F7"/>
</svg>
