<?xml version="1.0" standalone="no"?>
<!DOCTYPE svg PUBLIC "-//W3C//DTD SVG 20010904//EN"
 "http://www.w3.org/TR/2001/REC-SVG-20010904/DTD/svg10.dtd">
<svg version="1.0" xmlns="http://www.w3.org/2000/svg"
 width="920.000000pt" height="800.000000pt" viewBox="0 0 920.000000 800.000000"
 preserveAspectRatio="xMidYMid meet">

<g transform="translate(0.000000,800.000000) scale(0.100000,-0.100000)"
fill="#000000" stroke="none">
<path d="M4450 7004 c-770 -51 -1449 -353 -1975 -879 -416 -415 -716 -976
-824 -1538 -74 -384 -74 -790 0 -1174 108 -562 411 -1127 824 -1538 480 -479
1084 -772 1772 -861 174 -23 532 -23 708 0 687 88 1292 383 1770 861 416 416
716 976 825 1541 40 207 53 351 53 584 0 398 -64 742 -202 1093 -408 1033
-1340 1756 -2438 1891 -121 15 -415 26 -513 20z m1592 -1250 c15 -8 31 -28 38
-48 8 -25 11 -236 9 -753 -2 -723 2 -848 37 -1093 21 -147 49 -289 95 -474 61
-244 105 -608 98 -801 -3 -77 -9 -100 -36 -156 -43 -86 -101 -143 -193 -188
-70 -34 -81 -36 -170 -36 -86 0 -101 3 -162 32 -113 53 -191 140 -225 251 -26
85 -18 240 27 552 48 335 95 577 146 750 20 69 40 145 46 170 5 27 8 398 6
907 -2 819 -1 863 16 882 10 11 28 22 40 24 42 7 202 -6 228 -19z m-2203 -33
c13 -20 19 -701 9 -956 -5 -148 -13 -237 -24 -275 -48 -168 -168 -273 -347
-305 -92 -16 -106 -22 -113 -49 -2 -11 4 -210 15 -441 12 -231 26 -598 33
-816 l12 -397 -27 -54 c-35 -72 -87 -103 -172 -102 -64 1 -106 17 -142 56 -40
43 -53 90 -53 200 0 99 27 795 51 1312 14 291 18 278 -92 290 -167 17 -323
153 -368 322 -12 44 -17 1167 -5 1198 4 10 16 22 28 26 12 5 283 8 604 7 479
-2 584 -4 591 -16z m622 -1221 c76 -26 122 -55 178 -112 l43 -45 67 44 c36 24
104 63 150 86 82 41 87 42 180 42 84 -1 103 -4 153 -28 76 -37 143 -104 176
-175 34 -75 42 -193 17 -278 -65 -228 -314 -508 -677 -764 l-47 -33 -67 48
c-363 260 -603 535 -661 758 -76 300 196 555 488 457z"/>
<path d="M5875 3798 c-24 -109 -67 -807 -69 -1113 -1 -208 1 -234 18 -269 36
-72 134 -85 180 -23 19 26 21 44 24 235 6 325 -43 1147 -69 1178 -6 8 -27 14
-45 14 -27 0 -35 -5 -39 -22z"/>
<path d="M6035 3595 c3 -55 14 -237 25 -405 10 -168 22 -388 27 -490 8 -223
20 -195 29 75 8 212 -3 355 -51 686 -30 200 -34 219 -30 134z"/>
<path d="M5772 3442 c-18 -131 -37 -280 -42 -332 -11 -107 -11 -404 -1 -495
l7 -60 7 45 c7 49 69 1072 65 1076 -2 1 -18 -104 -36 -234z"/>
<path d="M5702 3497 c-56 -245 -114 -667 -116 -842 -1 -156 9 -195 73 -268 32
-36 136 -95 148 -84 3 4 -6 24 -21 44 -15 21 -42 59 -60 84 -18 25 -41 72 -52
105 -28 88 -23 278 20 698 19 193 34 351 32 353 -1 2 -12 -39 -24 -90z"/>
<path d="M6125 3475 c68 -712 73 -836 38 -942 -22 -66 -69 -147 -103 -178 -25
-23 -26 -55 -2 -55 23 1 104 61 136 103 43 57 56 109 56 232 0 145 -15 290
-51 500 -33 196 -81 416 -74 340z"/>
<path d="M2856 5468 c-15 -24 -23 -283 -18 -565 2 -118 4 -135 22 -153 25 -25
72 -26 93 -2 15 17 17 56 17 358 0 381 -1 384 -65 384 -25 0 -39 -6 -49 -22z"/>
<path d="M3194 5483 c-31 -22 -34 -55 -34 -372 0 -223 4 -328 12 -346 20 -44
84 -48 105 -5 18 36 18 664 0 700 -13 26 -60 38 -83 23z"/>
<path d="M3494 5469 c-18 -20 -19 -41 -19 -361 l0 -340 24 -19 c30 -25 66 -24
91 1 19 19 20 33 20 358 0 289 -2 341 -16 360 -20 29 -74 30 -100 1z"/>
<path d="M3187 2624 c-21 -7 -47 -54 -47 -87 0 -13 9 -36 21 -51 16 -21 29
-26 64 -26 54 0 84 23 91 71 10 63 -59 112 -129 93z"/>
</g>
</svg>
